<svg width="335" height="74" viewBox="0 0 335 74" fill="none" xmlns="http://www.w3.org/2000/svg">
<g clip-path="url(#clip0_3_670)">
<mask id="mask0_3_670" style="mask-type:luminance" maskUnits="userSpaceOnUse" x="0" y="0" width="335" height="74">
<path d="M335 0H0V74H335V0Z" fill="white"/>
</mask>
<g mask="url(#mask0_3_670)">
<path d="M36.4727 36.5016V20.5992C25.125 20.5992 15.8899 11.3567 15.8899 0H0C0 20.1612 16.3275 36.5016 36.4727 36.5016Z" fill="#1C1828"/>
<path d="M72.9455 36.5016V20.5992C61.5978 20.5992 52.3626 11.3567 52.3626 0H36.4728C36.4728 20.1612 52.8003 36.5016 72.9455 36.5016Z" fill="#6700F6"/>
<path d="M36.4727 72.8977V56.9953C25.125 56.9953 15.8899 47.7528 15.8899 36.3961H0C0 56.5573 16.3275 72.8977 36.4727 72.8977Z" fill="#1C1828"/>
<path d="M36.4728 36.3961V52.2985C47.8205 52.2985 57.0557 61.541 57.0557 72.8977H72.9455C72.9455 52.7365 56.618 36.3961 36.4728 36.3961Z" fill="#1C1828"/>
<path d="M194.934 32.7714V51.4526H187.992V35.958C187.992 29.6453 186.332 26.8967 181.489 26.8967C176.962 26.8967 174.411 29.902 174.411 35.1273V51.4526H167.47V8.68367H174.411V25.8849C176.252 22.6984 179.708 20.9767 184.099 20.9767C191.237 20.9767 194.934 24.9939 194.934 32.7714Z" fill="#1C1828"/>
<path d="M227.679 38.8879H205.633C205.829 43.6148 208.877 46.152 213.917 46.152C217.358 46.152 219.395 44.9891 220.542 42.6936L227.559 42.7691C226.668 48.3116 221.055 52.2079 213.917 52.2079C204.546 52.2079 198.752 46.2124 198.752 36.5773C198.752 26.9422 204.607 20.9467 213.661 20.9467C222.141 20.9467 227.875 26.6855 227.875 35.0369C227.875 36.2451 227.815 37.2116 227.679 38.8577V38.8879ZM221.055 33.5871C220.994 28.9961 218.308 26.4438 213.54 26.4438C208.771 26.4438 205.693 29.3736 205.633 33.5871H221.055Z" fill="#1C1828"/>
<path d="M232.206 21.7317H239.148V26.217C240.521 23.106 243.795 21.339 247.055 21.339C248.141 21.339 249.032 21.3994 249.801 21.5958V27.9688C248.715 27.848 248.141 27.848 247.055 27.848C242.151 27.848 239.148 31.548 239.148 38.3137V51.4525H232.206V21.7317Z" fill="#1C1828"/>
<path d="M279.906 38.8879H257.859C258.056 43.6148 261.104 46.152 266.144 46.152C269.584 46.152 271.622 45.0646 272.768 42.7691H279.785C278.895 48.3116 273.282 52.2079 266.144 52.2079C256.773 52.2079 250.978 46.2124 250.978 36.5773C250.978 26.9422 256.848 20.9467 265.887 20.9467C274.368 20.9467 280.102 26.6855 280.102 35.0369C280.102 36.2451 280.042 37.2116 279.906 38.8577V38.8879ZM273.282 33.5871C273.221 28.9961 270.535 26.4438 265.767 26.4438C260.998 26.4438 257.92 29.3736 257.859 33.5871H273.282Z" fill="#1C1828"/>
<path d="M283.965 21.7317H290.907V25.8847C292.748 22.6982 296.203 20.9766 300.595 20.9766C307.732 20.9766 311.429 24.9937 311.429 32.7713V51.4525H304.488V35.9578C304.488 29.6452 302.828 26.8966 297.984 26.8966C293.457 26.8966 290.907 29.9019 290.907 35.1272V51.4525H283.965V21.7317Z" fill="#1C1828"/>
<path d="M325.825 12.3234V21.732H332.646V27.5312H325.825V39.7789C325.825 44.9438 327.425 45.5781 330.156 45.5781C331.243 45.5781 332.963 45.4573 333.657 45.3214V51.4377C332.571 51.634 330.533 51.8153 328.496 51.8153C325.116 51.8153 318.869 51.3622 318.869 41.3495V27.501H313.829V21.7018H318.869L318.944 12.2328L325.825 12.2932V12.3234Z" fill="#1C1828"/>
<path d="M148.275 21.0975C139.825 21.0975 132.989 27.9539 132.989 36.3959C132.989 44.838 139.84 51.6943 148.275 51.6943C156.711 51.6943 163.562 44.838 163.562 36.3959C163.562 27.9539 156.711 21.0975 148.275 21.0975ZM148.275 45.2004C143.416 45.2004 139.493 41.2588 139.493 36.411C139.493 31.5633 143.431 27.6216 148.275 27.6216C153.119 27.6216 157.058 31.5633 157.058 36.411C157.058 41.2588 153.119 45.2004 148.275 45.2004Z" fill="#1C1828"/>
<path d="M122.351 39.7184C121.008 42.9049 117.854 45.14 114.172 45.14C109.268 45.14 105.299 41.1682 105.299 36.26C105.299 31.3518 109.268 27.38 114.172 27.38C118.125 27.38 121.46 29.9624 122.607 33.5416H129.337C128.055 26.3077 121.762 20.8106 114.157 20.8106C105.631 20.8106 98.7346 27.7273 98.7346 36.2449C98.7346 44.7624 105.646 51.6792 114.157 51.6792C121.49 51.6792 127.617 46.5445 129.186 39.6882H122.336L122.351 39.7184Z" fill="#1C1828"/>
</g>
</g>
<defs>
<clipPath id="clip0_3_670">
<rect width="335" height="74" fill="white"/>
</clipPath>
</defs>
</svg>
